<svg width="19" height="22" viewBox="0 0 19 22" fill="none" xmlns="http://www.w3.org/2000/svg">
<g clip-path="url(#clip0_27_509)">
<path d="M9.5 13.655C11.0533 13.655 12.3125 12.186 12.3125 10.3738C12.3125 8.56159 11.0533 7.09253 9.5 7.09253C7.9467 7.09253 6.6875 8.56159 6.6875 10.3738C6.6875 12.186 7.9467 13.655 9.5 13.655Z" stroke="#85586F" stroke-width="1.125" stroke-linecap="round" stroke-linejoin="round"/>
<path d="M15.125 3.81128H3.875C3.56434 3.81128 3.3125 4.10509 3.3125 4.46753V17.5925C3.3125 17.955 3.56434 18.2488 3.875 18.2488H15.125C15.4357 18.2488 15.6875 17.955 15.6875 17.5925V4.46753C15.6875 4.10509 15.4357 3.81128 15.125 3.81128Z" stroke="#85586F" stroke-width="1.125" stroke-linecap="round" stroke-linejoin="round"/>
<path d="M4.56396 18.2488C4.81887 16.9439 5.44608 15.7787 6.34284 14.9441C7.23961 14.1094 8.35275 13.6549 9.4999 13.6549C10.6471 13.6549 11.7602 14.1094 12.657 14.9441C13.5537 15.7787 14.1809 16.9439 14.4358 18.2488" stroke="#85586F" stroke-width="1.125" stroke-linecap="round" stroke-linejoin="round"/>
</g>
<defs>
<clipPath id="clip0_27_509">
<rect width="18" height="21" fill="white" transform="translate(0.5 0.530029)"/>
</clipPath>
</defs>
</svg>
